<?xml version="1.0" standalone="no"?>
<!DOCTYPE svg PUBLIC "-//W3C//DTD SVG 20010904//EN"
 "http://www.w3.org/TR/2001/REC-SVG-20010904/DTD/svg10.dtd">
<svg version="1.0" xmlns="http://www.w3.org/2000/svg"
 width="288.000000pt" height="224.000000pt" viewBox="0 0 288.000000 224.000000"
 preserveAspectRatio="xMidYMid meet">
<metadata>
Created by potrace 1.14, written by Peter Selinger 2001-2017
</metadata>
<g transform="translate(0.000000,224.000000) scale(0.100000,-0.100000)"
fill="#000000" stroke="none">
<path d="M943 1592 c4 -55 14 -133 22 -172 8 -39 15 -80 15 -91 0 -29 -28 -35
-53 -11 -12 11 -39 29 -60 40 -21 11 -55 38 -75 59 -82 85 -133 110 -74 36 38
-48 133 -138 152 -145 12 -4 12 -8 3 -19 -19 -22 -158 -89 -187 -89 -8 0 -17
-4 -20 -9 -3 -5 -17 -8 -30 -8 -13 0 -41 -13 -61 -29 -21 -16 -53 -34 -72 -40
l-35 -12 -38 82 c-40 89 -76 132 -115 142 -28 7 -67 -14 -90 -49 -27 -42 -46
-166 -45 -297 1 -69 1 -131 1 -137 -1 -8 -11 -11 -30 -7 -22 5 -36 -1 -67 -28
-21 -18 -42 -37 -46 -43 -15 -21 -21 -123 -11 -200 21 -174 109 -268 207 -224
33 15 59 7 135 -42 111 -72 165 -92 230 -86 57 6 139 36 221 80 49 26 136 42
145 27 3 -5 10 -35 16 -66 10 -54 29 -83 54 -84 6 0 28 22 49 50 l38 49 -26
65 c-14 35 -26 67 -26 71 0 17 -60 79 -93 96 -21 11 -37 25 -34 32 4 12 189
76 223 77 11 0 24 -4 30 -8 16 -14 117 -53 123 -47 3 3 -1 15 -8 26 -7 12 -10
24 -6 27 12 12 150 14 210 3 73 -14 85 -24 60 -51 -10 -11 -13 -20 -7 -20 16
0 114 20 132 27 8 4 20 5 25 3 6 -1 27 -7 49 -12 55 -13 176 -71 176 -84 0 -7
-15 -15 -33 -18 -54 -10 -107 -80 -137 -182 -15 -52 1 -111 33 -123 61 -23 64
-22 76 6 6 16 14 46 19 68 7 37 10 40 44 43 39 3 85 -16 132 -55 16 -13 55
-38 87 -54 33 -16 59 -34 59 -40 0 -6 8 -8 19 -4 10 3 23 0 29 -8 15 -18 81
-21 88 -4 2 7 30 24 62 38 31 13 85 39 120 57 l63 32 39 -20 c22 -11 53 -20
69 -20 104 0 175 214 135 408 -5 24 -57 82 -90 100 -12 6 -26 7 -36 1 -24 -13
-27 6 -16 112 12 116 6 184 -26 283 -24 76 -53 115 -87 116 -9 0 -38 -15 -64
-32 -38 -27 -51 -45 -72 -98 -14 -36 -29 -69 -34 -74 -8 -9 -28 2 -214 111
-27 16 -75 41 -105 56 -30 15 -64 34 -75 43 -20 16 -20 16 -1 27 46 28 121 95
124 110 5 24 -24 21 -50 -5 -13 -13 -29 -22 -36 -20 -7 2 -22 -8 -33 -22 -11
-14 -25 -26 -32 -26 -6 0 -21 -10 -34 -22 -21 -20 -25 -20 -39 -7 -13 14 -13
25 1 105 17 101 35 267 29 273 -8 9 -23 -51 -33 -140 -17 -137 -32 -219 -41
-219 -4 0 -14 15 -23 33 -12 27 -13 44 -2 117 7 47 10 88 6 93 -4 4 -13 -29
-20 -72 -7 -44 -19 -88 -27 -98 -22 -29 -16 -46 28 -78 53 -37 93 -55 125 -55
14 0 42 -13 62 -28 20 -16 52 -34 71 -42 19 -7 58 -27 85 -45 85 -54 168 -101
225 -128 32 -15 80 -51 114 -86 l58 -59 -11 -73 c-30 -209 -96 -518 -114 -536
-9 -9 -118 63 -207 137 -47 39 -92 70 -101 70 -9 0 -22 7 -29 15 -7 8 -18 15
-25 15 -7 0 -18 7 -25 15 -7 9 -18 14 -25 12 -6 -3 -29 6 -51 19 -21 13 -46
24 -55 24 -9 0 -27 8 -40 19 -40 30 -158 64 -246 69 -61 3 -83 8 -83 18 0 8 8
14 19 14 10 0 26 11 35 25 10 15 26 25 41 25 17 0 29 9 42 33 37 72 35 181 -7
269 l-21 46 26 26 c43 43 65 103 65 182 0 60 -4 76 -25 105 -13 19 -35 57 -49
86 -13 28 -33 56 -44 62 -31 16 -76 -26 -92 -86 -23 -83 -25 -85 -65 -62 -81
48 -125 5 -137 -133 -4 -51 -11 -111 -14 -134 -13 -88 46 -192 101 -178 32 8
33 -11 2 -57 -15 -22 -32 -35 -50 -37 -31 -4 -36 -27 -9 -41 23 -12 77 18 87
48 12 38 22 22 27 -43 3 -35 14 -78 24 -95 10 -17 16 -33 13 -36 -3 -2 -54 0
-112 5 -74 7 -114 7 -127 0 -10 -6 -55 -10 -99 -9 -44 1 -84 -2 -90 -5 -6 -4
-36 -14 -68 -22 -31 -8 -84 -28 -118 -44 -33 -16 -82 -34 -107 -39 -26 -6 -70
-24 -98 -41 -28 -16 -53 -30 -56 -30 -2 0 -57 -32 -121 -70 -64 -39 -121 -69
-127 -67 -16 5 -53 153 -72 282 -8 61 -22 148 -30 194 -24 140 -21 151 36 205
27 25 56 46 64 46 24 0 126 48 162 75 18 14 39 25 47 25 8 0 59 18 114 41 54
22 125 48 158 58 33 9 69 22 80 28 12 6 79 16 150 22 87 7 133 15 143 25 25
24 5 36 -33 20 -19 -8 -59 -14 -90 -14 -55 0 -56 1 -71 35 -8 19 -19 58 -25
87 -6 29 -16 58 -21 63 -7 7 -9 2 -5 -15 3 -14 9 -58 13 -97 l7 -73 -27 0
c-14 0 -26 4 -26 9 0 5 -9 60 -20 122 -11 63 -20 137 -20 166 0 28 -5 55 -12
59 -8 5 -10 -18 -5 -94z m731 -178 c9 -8 16 -24 16 -33 0 -10 9 -29 19 -43 11
-14 25 -46 32 -71 9 -38 8 -54 -5 -94 -19 -55 -61 -103 -91 -103 -47 0 -60
-44 -16 -53 63 -13 110 -187 67 -252 -17 -25 -19 -26 -36 -10 -18 16 -20 15
-34 -19 -22 -53 -49 -49 -73 12 -13 35 -18 73 -17 150 0 56 -3 102 -6 102 -3
0 -15 -7 -26 -15 -25 -19 -69 -19 -88 1 -23 22 -29 58 -22 117 4 29 7 77 6
107 -1 43 4 60 20 78 26 28 35 28 64 -1 25 -25 51 -90 61 -150 10 -65 22 -32
28 81 6 111 23 176 54 200 22 16 28 15 47 -4z m-1344 -132 c17 -13 21 -25 18
-52 l-5 -35 -13 33 c-14 32 -25 37 -54 26 -23 -9 -20 -22 6 -26 13 -2 29 -15
36 -31 18 -37 5 -55 -19 -28 -25 27 -26 27 -44 -9 -16 -30 -9 -40 13 -18 17
17 40 -5 25 -24 -14 -18 1 -282 22 -383 31 -150 -11 -334 -84 -365 -104 -43
-192 78 -190 259 2 136 19 158 64 81 16 -27 34 -50 40 -50 6 0 20 17 31 38 16
32 20 67 25 257 6 232 13 275 54 319 28 31 45 32 75 8z m2308 -132 c44 -42 68
-184 55 -327 -12 -131 -5 -239 20 -276 9 -15 22 -27 28 -27 14 0 57 48 64 71
18 57 41 -16 39 -126 -2 -115 -37 -201 -95 -234 -24 -13 -32 -13 -73 3 -39 15
-51 26 -71 66 -49 98 -52 180 -10 405 8 44 14 115 15 157 0 42 5 80 10 83 15
10 12 35 -5 35 -8 0 -15 9 -15 20 0 22 26 28 33 8 2 -7 8 -10 12 -6 9 8 -21
58 -35 58 -5 0 -12 -9 -15 -20 -7 -23 -25 -27 -25 -6 0 8 5 27 10 41 8 22 15
26 35 23 28 -6 35 16 9 26 -31 12 -50 5 -61 -21 l-11 -28 -1 36 c-2 59 43 79
87 39z m-1650 -693 c23 -15 42 -34 42 -43 0 -14 -2 -14 -22 0 -25 18 -48 21
-48 6 0 -5 20 -18 45 -29 25 -11 45 -24 45 -28 0 -4 -42 -8 -93 -9 -65 -1
-103 -6 -123 -17 -63 -34 -131 -61 -193 -78 -63 -17 -69 -17 -119 -1 -58 19
-65 38 -21 59 19 9 40 10 72 4 26 -4 49 -6 52 -3 13 13 3 30 -22 36 -36 10
-22 21 102 86 97 50 102 52 170 48 55 -3 79 -10 113 -31z m1137 -57 c44 -22
102 -59 130 -84 44 -38 48 -45 36 -60 -19 -22 -10 -28 42 -30 74 -2 104 -45
45 -65 -37 -13 -145 -5 -168 13 -8 6 -35 22 -60 35 -25 13 -52 32 -62 42 -9
11 -21 19 -26 19 -5 0 -15 6 -21 14 -11 13 -46 21 -139 32 -52 6 -74 23 -61
47 17 29 69 59 112 64 23 2 44 6 46 9 12 12 53 0 126 -36z"/>
<path d="M1243 1145 c-3 -9 -3 -36 0 -61 4 -36 1 -46 -14 -54 -38 -21 -47 -12
-54 50 -6 51 -10 60 -27 60 -19 0 -20 -4 -13 -172 4 -95 11 -177 16 -183 20
-21 34 16 30 85 -3 65 -1 70 18 72 12 0 27 1 34 2 8 1 14 -22 17 -69 4 -62 7
-70 25 -70 19 0 20 6 17 160 -2 88 -6 168 -8 178 -7 21 -33 22 -41 2z"/>
<path d="M916 1069 c-34 -40 -38 -112 -10 -156 11 -18 24 -23 60 -23 49 0 63
-15 44 -49 -13 -25 -47 -27 -78 -5 -25 17 -31 10 -35 -42 -2 -25 4 -32 36 -48
31 -15 44 -16 63 -7 60 27 85 142 45 207 -16 27 -17 37 -8 74 11 39 10 43 -12
61 -35 29 -75 24 -105 -12z"/>
<path d="M1856 1033 c-3 -21 -11 -98 -17 -171 -11 -114 -10 -135 2 -143 24
-15 26 -11 33 50 4 32 9 61 13 64 3 4 19 -1 35 -9 16 -9 36 -13 44 -10 25 10
47 76 41 129 -5 56 -31 89 -85 106 -20 7 -42 14 -49 17 -7 3 -13 -10 -17 -33z"/>
<path d="M771 1030 c-13 -7 -12 -32 3 -177 10 -92 21 -171 25 -176 4 -4 14 -1
23 5 15 12 15 26 -4 178 -11 91 -23 168 -27 172 -3 4 -13 3 -20 -2z"/>
<path d="M2081 893 c-31 -202 -26 -262 27 -303 63 -50 88 -14 113 162 17 125
18 134 2 146 -22 16 -26 5 -42 -118 -7 -52 -15 -103 -17 -112 -7 -23 -27 -23
-48 1 -17 19 -17 26 -1 145 15 102 16 128 5 141 -22 26 -27 17 -39 -62z"/>
<path d="M573 929 c-43 -25 -52 -35 -48 -52 3 -12 14 -87 25 -166 11 -79 22
-147 25 -149 3 -3 12 1 21 10 13 13 14 24 5 74 -10 52 -9 60 6 72 25 18 27 16
57 -38 29 -53 32 -55 56 -40 12 7 10 18 -14 67 -25 53 -27 63 -17 100 18 66
-9 153 -47 153 -9 0 -41 -14 -69 -31z"/>
<path d="M413 833 c-18 -7 -16 -31 12 -189 33 -177 31 -173 55 -148 16 15 18
26 11 49 -4 17 -18 90 -31 163 -13 72 -26 132 -29 131 -3 0 -12 -3 -18 -6z"/>
<path d="M2325 807 c-10 -40 -55 -289 -55 -301 0 -15 114 -96 134 -96 25 0 46
54 46 116 0 31 5 73 11 93 19 65 -1 112 -71 165 -57 44 -60 45 -65 23z"/>
<path d="M1347 524 c-10 -13 -24 -24 -32 -24 -8 0 -15 -4 -15 -10 0 -5 11 -10
24 -10 26 0 59 -36 91 -99 14 -28 15 -39 6 -54 -7 -10 -9 -22 -5 -25 4 -4 9
-1 11 6 8 22 28 12 50 -26 33 -58 84 -124 90 -118 3 3 -20 44 -52 92 l-59 87
29 55 c20 37 38 59 57 66 30 11 35 21 17 31 -5 4 -15 19 -21 33 l-11 27 -7
-32 c-10 -45 -62 -143 -76 -143 -10 0 -69 116 -76 152 -2 13 -6 12 -21 -8z"/>
</g>
</svg>
